:SAMPLES-PER-SECOND 30
:FULLY-SPECIFIED
:DEGREES
287
root  25.1054 28.0368 31.6189 -171.824 60.0477 169.689
RightUpLeg  -21.9106 -21.4914 -10.2604
RightLeg  64.2121 0.252548 0.331801
RightFoot  -23.8786 0.138256 1.03142
RightToes  -56.5212 -0.362003 -0.388265
Spine  12.723 1.75577 -2.17221
Spine1  22.8483 5.61703 -4.10754
HEad  10.7645 20.8591 -11.9069
LeftShoulder1  0 -2.42657e-020 -4.95415e-022
LeftArm  -35.1709 -8.65182 -80.0931
LeftForeArm  36.0545 -18.0522 -3.28231
LeftHand  0.175947 -7.95025 -2.90403
RightShoulder  0 2.42657e-020 1.07489e-018
RightArm  -3.44656 7.42835 91.0783
RightForeArm  91.4249 50.8824 12.3736
RightHand  -9.35305 19.7664 -49.946
LeftUpLeg  -60.1314 14.8408 11.1399
LeftLeg  51.2001 -2.1209 -2.32199
LeftFoot  -2.77987 0.00535817 0.220821
LeftToes  -33.9456 8.63562e-007 1.17448e-007
288
root  25.3602 26.6242 29.7268 -172.849 59.0039 168.431
RightUpLeg  -19.0495 -18.3492 -13.4782
RightLeg  65.5941 -1.93582 -3.74589
RightFoot  -30.3935 0.873683 3.59326
RightToes  -51.7183 -0.318189 -0.371318
Spine  13.2385 2.94017 -2.18952
Spine1  23.3321 9.5776 -5.77058
HEad  9.0317 17.1029 -10.1493
LeftShoulder1  0 -2.42657e-020 -4.95415e-022
LeftArm  -31.1751 -9.80846 -81.3955
LeftForeArm  33.9189 -19.4025 -3.5496
LeftHand  0.188767 -8.02482 -3.06321
RightShoulder  0 2.42657e-020 1.07489e-018
RightArm  -6.10303 12.9675 88.2652
RightForeArm  86.2077 43.1523 9.3836
RightHand  -9.03697 20.4689 -46.9208
LeftUpLeg  -64.4077 12.3088 11.4123
LeftLeg  42.2055 -1.10749 -0.887312
LeftFoot  -3.65014 0.00255455 0.0801605
LeftToes  -32.2355 8.63562e-007 1.17448e-007
289
root  25.5262 24.8884 27.7776 -174.469 58.8404 166.669
RightUpLeg  -18.2267 -14.9511 -16.5258
RightLeg  71.2005 -3.99865 -9.73748
RightFoot  -34.6727 2.32179 7.8061
RightToes  -48.2234 -0.287278 -0.35671
Spine  14.277 4.4218 -2.18454
Spine1  24.4511 14.0685 -6.70812
HEad  7.88422 12.6971 -8.18485
LeftShoulder1  0 -2.42657e-020 -4.95415e-022
LeftArm  -28.0087 -12.7457 -83.9067
LeftForeArm  35.864 -19.3522 -3.53796
LeftHand  0.182987 -8.74591 -2.76468
RightShoulder  0 2.42657e-020 1.07489e-018
RightArm  -13.3785 18.6262 83.0838
RightForeArm  84.6261 32.6557 6.36279
RightHand  -9.36843 21.0218 -47.2977
LeftUpLeg  -70.2163 9.8116 10.1834
LeftLeg  48.9543 -7.72384 -7.73394
LeftFoot  2.32479 0.00637971 -0.314429
LeftToes  -39.2407 8.63562e-007 1.17448e-007
290
root  25.8421 23.1798 25.9377 -178.439 59.9191 164.288
RightUpLeg  -17.6519 -11.8166 -19.601
RightLeg  79.5959 -4.52426 -17.7613
RightFoot  -35.5952 4.18945 13.3781
RightToes  -35.7338 -0.185331 -0.289777
Spine  16.3875 5.62317 -2.53995
Spine1  27.3777 17.7239 -7.04632
HEad  7.36829 8.51774 -5.9393
LeftShoulder1  0 -2.42657e-020 -4.95415e-022
LeftArm  -24.9396 -16.8258 -85.9188
LeftForeArm  36.745 -18.9478 -3.45722
LeftHand  0.179034 -9.04433 -2.63531
RightShoulder  0 2.42657e-020 1.07489e-018
RightArm  -28.7255 25.0448 78.2884
RightForeArm  83.9474 21.6421 3.89348
RightHand  -8.29403 21.5038 -41.4377
LeftUpLeg  -75.315 6.51443 10.983
LeftLeg  63.4671 -8.66692 -14.5191
LeftFoot  7.40663 0.13015 -2.01062
LeftToes  -44.6557 8.63562e-007 1.17448e-007
291
root  26.236 22.0397 24.6979 -177.912 59.3378 164.286
RightUpLeg  -20.0197 -10.7796 -19.6053
RightLeg  87.0553 -2.98444 -24.8498
RightFoot  -31.9615 4.83413 17.1472
RightToes  -22.8886 -0.0981398 -0.199632
Spine  17.5233 5.2821 -2.94619
Spine1  28.8624 17.0551 -6.0412
HEad  4.86088 5.17281 -3.0679
LeftShoulder1  0 -2.42657e-020 -4.95415e-022
LeftArm  -22.0764 -21.0395 -85.8053
LeftForeArm  37.5796 -17.9392 -3.25882
LeftHand  0.157921 -9.10965 -2.35386
RightShoulder  0 2.42657e-020 1.07489e-018
RightArm  -48.3966 29.3271 74.2046
RightForeArm  65.0631 13.9789 2.45663
RightHand  -4.56717 16.6932 -30.0524
LeftUpLeg  -80.6033 4.60138 11.3175
LeftLeg  72.5102 -5.8771 -14.8262
LeftFoot  4.69466 0.0558154 -1.36158
LeftToes  -47.987 8.63562e-007 1.17448e-007
292
root  26.7431 21.4495 23.9114 -175.903 57.0572 166.141
RightUpLeg  -21.8607 -9.41242 -18.051
RightLeg  92.7063 -0.428512 -29.0671
RightFoot  -21.6499 2.80146 14.953
RightToes  -25.5398 -0.114445 -0.219803
Spine  17.9037 3.55061 -3.20656
Spine1  29.4752 12.4267 -3.8544
HEad  3.73432 3.16234 -0.308317
LeftShoulder1  0 -2.42657e-020 -4.95415e-022
LeftArm  -20.9795 -24.4605 -83.6777
LeftForeArm  40.3107 -16.5159 -2.98096
LeftHand  0.165928 -9.50042 -2.36826
RightShoulder  0 2.42657e-020 1.07489e-018
RightArm  -67.0669 27.984 72.7103
RightForeArm  36.9487 13.433 2.40415
RightHand  -2.83948 15.3868 -20.4309
LeftUpLeg  -83.9417 2.74417 11.5715
LeftLeg  77.7083 -4.5852 -15.627
LeftFoot  2.47042 0.0225526 -1.04594
LeftToes  -49.2342 8.63562e-007 1.17448e-007
293
root  27.3275 21.27 23.3967 -173.943 53.2715 168.971
RightUpLeg  -22.551 -8.83911 -16.2947
RightLeg  97.5792 2.0763 -26.5125
RightFoot  -13.1653 1.01788 9.18154
RightToes  -19.0503 -0.076228 -0.169143
Spine  18.149 0.966411 -3.23207
Spine1  30.2162 5.44006 -1.12124
HEad  2.61499 3.16365 2.11885
LeftShoulder1  0 -2.42657e-020 -4.95415e-022
LeftArm  -21.8499 -27.0414 -80.3915
LeftForeArm  42.4241 -15.9029 -2.86129
LeftHand  0.1776 -10.0622 -2.38874
RightShoulder  0 2.42657e-020 1.07489e-018
RightArm  -67.8611 22.8584 74.0643
RightForeArm  21.975 19.7252 3.62071
RightHand  -1.45131 17.6609 -8.95516
LeftUpLeg  -85.228 -0.693117 12.9347
LeftLeg  80.1593 -3.9525 -16.0207
LeftFoot  1.36146 0.0118407 -0.996547
LeftToes  -50.6322 8.63562e-007 1.17448e-007
294
root  27.9395 21.3909 23.1633 -172.803 51.9428 171.356
RightUpLeg  -24.2863 -5.4082 -15.4521
RightLeg  102.461 1.63836 -9.59789
RightFoot  -18.1495 0.747494 5.05518
RightToes  -29.5268 -0.140676 -0.248664
Spine  18.5479 -0.707346 -3.98415
Spine1  31.2557 0.419703 0.191643
HEad  2.25436 4.98469 2.99946
LeftShoulder1  0 -2.42657e-020 -4.95415e-022
LeftArm  -22.9665 -28.8332 -75.2083
LeftForeArm  40.9971 -16.8276 -3.03996
LeftHand  0.227665 -10.6706 -2.80923
RightShoulder  0 2.42657e-020 1.07489e-018
RightArm  -62.8452 18.6152 75.8936
RightForeArm  18.7956 26.0478 4.93964
RightHand  -0.399465 19.0005 -2.01737
LeftUpLeg  -84.2507 -1.80835 14.572
LeftLeg  81.0568 -3.76105 -16.3525
LeftFoot  0.219345 0.00308396 -0.859871
LeftToes  -51.5262 8.63562e-007 1.17448e-007
295
root  28.4946 21.7753 23.1669 -172.049 52.3802 173.148
RightUpLeg  -27.2027 -3.16104 -15.6936
RightLeg  105.8 0.759496 -2.83011
RightFoot  -10.624 0.16533 2.15571
RightToes  -35.783 -0.185703 -0.290083
Spine  18.4673 -1.81432 -4.89181
Spine1  31.7085 -3.02734 0.0183837
HEad  3.53934 8.61279 1.63253
LeftShoulder1  0 -2.42657e-020 -4.95415e-022
LeftArm  -25.2903 -29.1361 -69.1786
LeftForeArm  40.2297 -17.1421 -3.10143
LeftHand  0.15695 -10.373 -2.10032
RightShoulder  0 2.42657e-020 1.07489e-018
RightArm  -63.7691 16.0136 79.634
RightForeArm  -0.818669 33.2271 6.61329
RightHand  0.952385 19.211 5.99515
LeftUpLeg  -81.9096 -1.70336 16.2904
LeftLeg  80.4918 -3.87192 -16.1013
LeftFoot  -0.547183 -0.00340054 -0.711761
LeftToes  -51.9847 8.63562e-007 1.17448e-007
296
root  28.9297 22.2306 23.2706 -171.776 52.8994 174.694
RightUpLeg  -29.2443 -2.66578 -17.7001
RightLeg  107.088 0.966614 -3.40041
RightFoot  -19.9622 0.471856 3.05838
RightToes  -35.8535 -0.186235 -0.290521
Spine  18.0801 -2.50572 -5.03501
Spine1  31.4137 -4.62042 -0.959955
HEad  5.90019 12.9159 -0.87912
LeftShoulder1  0 -2.42657e-020 -4.95415e-022
LeftArm  -28.857 -27.3468 -65.2998
LeftForeArm  42.5401 -17.0236 -3.07572
LeftHand  0.046578 -10.7333 -0.866327
RightShoulder  0 2.42657e-020 1.07489e-018
RightArm  -58.9254 13.6307 80.1906
RightForeArm  0.461064 38.6409 8.08933
RightHand  1.20301 19.2573 7.45475
LeftUpLeg  -79.032 -1.706 17.7661
LeftLeg  79.1011 -4.15864 -15.6033
LeftFoot  -0.731993 -0.00431777 -0.675923
LeftToes  -52.9466 8.63562e-007 1.17448e-007
297
root  29.2918 22.77 23.5875 -171.066 54.6602 177.353
RightUpLeg  -32.12 -2.18946 -19.5385
RightLeg  105.922 2.65022 -11.3599
RightFoot  -19.9172 1.0183 6.17254
RightToes  -25.7577 -0.115826 -0.221427
Spine  18.0946 -2.29653 -4.39437
Spine1  31.5181 -3.78444 -1.69674
HEad  6.48577 17.0721 -4.81115
LeftShoulder1  0 -2.42657e-020 -4.95415e-022
LeftArm  -30.319 -25.0048 -63.6014
LeftForeArm  41.7057 -17.3281 -3.13556
LeftHand  -0.0203033 -10.5983 -0.151147
RightShoulder  0 2.42657e-020 1.07489e-018
RightArm  -56.9277 13.9912 78.26
RightForeArm  0.545925 43.3641 9.5766
RightHand  1.62338 20.548 9.31126
LeftUpLeg  -74.9125 -0.0688297 19.6292
LeftLeg  77.0005 -4.80496 -15.6395
LeftFoot  -0.746701 -0.00471654 -0.723804
LeftToes  -53.579 8.63562e-007 1.17448e-007
298
root  29.5169 23.4942 24.1858 -170.591 56.5964 178.651
RightUpLeg  -35.7263 -1.83818 -22.0119
RightLeg  101.659 1.98557 -12.9443
RightFoot  -22.0304 1.37801 7.44839
RightToes  -21.4213 -0.0895229 -0.188151
Spine  18.0938 -1.53704 -3.63668
Spine1  31.4782 -1.1463 -3.4202
HEad  6.12059 20.8598 -9.29779
LeftShoulder1  0 -2.42657e-020 -4.95415e-022
LeftArm  -30.8982 -22.3646 -63.3924
LeftForeArm  39.028 -18.2374 -3.31543
LeftHand  0.0421488 -10.0424 -0.850247
RightShoulder  0 2.42657e-020 1.07489e-018
RightArm  -53.558 17.0801 75.7419
RightForeArm  7.98212 47.5269 11.1145
RightHand  1.22121 20.8533 7.0014
LeftUpLeg  -70.5934 1.63972 21.009
LeftLeg  72.7353 -6.01993 -15.3388
LeftFoot  0.65284 0.00642652 -1.128
LeftToes  -54.4786 8.63562e-007 1.17448e-007
299
root  29.6012 24.4176 25.1863 -169.485 58.382 179.47
RightUpLeg  -40.0418 -0.034345 -23.2162
RightLeg  94.6454 0.244702 -7.26271
RightFoot  -20.8223 0.858309 5.04666
RightToes  -30.8369 -0.149726 -0.25774
Spine  18.2697 -0.0449981 -2.86689
Spine1  31.6172 3.14021 -5.18735
HEad  4.89975 22.8147 -12.8405
LeftShoulder1  0 -2.42657e-020 -4.95415e-022
LeftArm  -31.3918 -20.7841 -64.9349
LeftForeArm  34.8924 -19.7792 -3.62367
LeftHand  0.040383 -8.76012 -0.897873
RightShoulder  0 2.42657e-020 1.07489e-018
RightArm  -53.2222 23.2943 73.4136
RightForeArm  19.0099 50.2811 12.2827
RightHand  0.693191 22.7487 3.81586
LeftUpLeg  -66.1706 2.3656 23.2981
LeftLeg  65.4846 -7.87104 -14.3412
LeftFoot  3.75186 0.0665666 -2.03219
LeftToes  -55.2787 8.63562e-007 1.17448e-007
